<?xml version="1.0" encoding="UTF-8"?>
<svg width="331px" height="168px" viewBox="0 0 331 168" version="1.1" xmlns="http://www.w3.org/2000/svg" xmlns:xlink="http://www.w3.org/1999/xlink">
    <!-- Generator: Sketch 44.1 (41455) - http://www.bohemiancoding.com/sketch -->
    <title>fyi-logo-white</title>
    <desc>Created with Sketch.</desc>
    <defs></defs>
    <g id="Page-1" stroke="none" stroke-width="1" fill="none" fill-rule="evenodd">
        <g id="fyi-logo-white" fill="#FFFFFF">
            <g id="Combined-Shape" fill-rule="nonzero">
                <path d="M166.83216,73.2209978 C167.264205,76.6674505 167.4868,80.1790332 167.4868,83.7426 C167.4868,129.9966 129.9938,167.4866 83.7428,167.4866 C37.4938,167.4866 -0.0002,129.9966 -0.0002,83.7426 C-0.0002,70.4667511 3.08925363,57.9123845 8.5884073,46.7592065 C31.2218494,44.5523115 55.8974935,49.3668743 73.4148,60.1346 C76.4848,62.0206 80.5028,61.0576 82.3958,57.9846 C84.2828,54.9186 83.3168,50.8986 80.2478,49.0086 C62.668449,38.2051339 39.5561627,32.6815922 16.9999037,33.1567845 C32.2932646,13.0106686 56.4990401,0.0006 83.7428,0.0006 C121.785224,0.0006 153.902502,25.3661512 164.104491,60.1059969 C143.20055,49.6268419 118.005781,47.6627508 89.0808,54.2756 C86.2658,54.9166 84.5118,57.7166 85.1558,60.5246 C85.7968,63.3336 88.5958,65.0946 91.4048,64.4496 C120.5548,57.7916 145.3068,60.5056 164.9718,72.5246 C165.560009,72.8843667 166.191362,73.113844 166.83216,73.2209978 Z M127.002796,115.083721 C101.233796,122.904721 56.7077962,121.430721 29.7137962,105.399721 C26.0007962,103.189721 21.1897962,104.417721 18.9817962,108.138721 C16.7757962,111.854721 17.9957962,116.662721 21.7187962,118.871721 C52.7947962,137.318721 101.968796,139.052721 131.549796,130.073721 C135.691796,128.815721 138.025796,124.442721 136.770796,120.301721 C135.517796,116.164721 131.141796,113.828721 127.002796,115.083721 Z" id="path-1"></path>
            </g>
            <path d="M205.37,114 L205.37,78.54 L199.16,78.54 L199.16,69.36 L205.37,69.36 L205.37,66.48 C205.37,60.5999706 206.779986,55.9500171 209.6,52.53 C212.420014,49.1099829 216.259976,47.4 221.12,47.4 C224.960019,47.4 228.829981,48.3299907 232.73,50.19 L230.3,59.28 C229.399995,58.7999976 228.335006,58.3950017 227.105,58.065 C225.874994,57.7349983 224.750005,57.57 223.73,57.57 C219.529979,57.57 217.43,60.3899718 217.43,66.03 L217.43,69.36 L228.95,69.36 L228.95,78.54 L217.43,78.54 L217.43,114 L205.37,114 Z M236.78,123.18 C237.800005,123.480002 238.789995,123.704999 239.75,123.855 C240.710005,124.005001 241.519997,124.08 242.18,124.08 C242.960004,124.08 243.679997,123.930002 244.34,123.63 C245.000003,123.329999 245.599997,122.805004 246.14,122.055 C246.680003,121.304996 247.219997,120.270007 247.76,118.95 C248.300003,117.629993 248.869997,115.98001 249.47,114 L230.84,66.84 L243.26,66.84 L256.04,103.56 L267.38,66.84 L278.72,66.84 L258.92,123.36 C257.779994,126.660016 255.830014,129.359989 253.07,131.46 C250.309986,133.560011 246.89002,134.61 242.81,134.61 C241.849995,134.61 240.875005,134.535001 239.885,134.385 C238.894995,134.234999 237.860005,133.980002 236.78,133.62 L236.78,123.18 Z M285.29,114 L285.29,66.84 L297.35,66.84 L297.35,114 L285.29,114 Z M285.29,60.27 L285.29,48.3 L297.35,48.3 L297.35,60.27 L285.29,60.27 Z" id="fyi"></path>
            <path d="M311.75,50.73 C311.75,48.0899868 312.694991,45.8250095 314.585,43.935 C316.475009,42.0449906 318.739987,41.1 321.38,41.1 C324.020013,41.1 326.284991,42.0449906 328.175,43.935 C330.065009,45.8250095 331.01,48.0899868 331.01,50.73 C331.01,53.3700132 330.065009,55.6349905 328.175,57.525 C326.284991,59.4150094 324.020013,60.36 321.38,60.36 C318.739987,60.36 316.475009,59.4150094 314.585,57.525 C312.694991,55.6349905 311.75,53.3700132 311.75,50.73 Z M318.23,50.73 C318.23,51.5700042 318.544997,52.3049969 319.175,52.935 C319.805003,53.5650031 320.539996,53.88 321.38,53.88 C322.220004,53.88 322.954997,53.5650031 323.585,52.935 C324.215003,52.3049969 324.53,51.5700042 324.53,50.73 C324.53,49.8899958 324.215003,49.1550031 323.585,48.525 C322.954997,47.8949968 322.220004,47.58 321.38,47.58 C320.539996,47.58 319.805003,47.8949968 319.175,48.525 C318.544997,49.1550031 318.23,49.8899958 318.23,50.73 Z" id="˚"></path>
        </g>
    </g>
</svg>