<?xml version="1.0" encoding="UTF-8"?>
<svg width="331px" height="168px" viewBox="0 0 331 168" version="1.1" xmlns="http://www.w3.org/2000/svg" xmlns:xlink="http://www.w3.org/1999/xlink">
    <!-- Generator: Sketch 44.1 (41455) - http://www.bohemiancoding.com/sketch -->
    <title>fyi Logo</title>
    <desc>Created with Sketch.</desc>
    <defs>
        <path d="M166.83216,73.2209978 C167.264205,76.6674505 167.4868,80.1790332 167.4868,83.7426 C167.4868,129.9966 129.9938,167.4866 83.7428,167.4866 C37.4938,167.4866 -0.0002,129.9966 -0.0002,83.7426 C-0.0002,70.4667511 3.08925363,57.9123845 8.5884073,46.7592065 C31.2218494,44.5523115 55.8974935,49.3668743 73.4148,60.1346 C76.4848,62.0206 80.5028,61.0576 82.3958,57.9846 C84.2828,54.9186 83.3168,50.8986 80.2478,49.0086 C62.668449,38.2051339 39.5561627,32.6815922 16.9999037,33.1567845 C32.2932646,13.0106686 56.4990401,0.0006 83.7428,0.0006 C121.785224,0.0006 153.902502,25.3661512 164.104491,60.1059969 C143.20055,49.6268419 118.005781,47.6627508 89.0808,54.2756 C86.2658,54.9166 84.5118,57.7166 85.1558,60.5246 C85.7968,63.3336 88.5958,65.0946 91.4048,64.4496 C120.5548,57.7916 145.3068,60.5056 164.9718,72.5246 C165.560009,72.8843667 166.191362,73.113844 166.83216,73.2209978 Z M127.002796,115.083721 C101.233796,122.904721 56.7077962,121.430721 29.7137962,105.399721 C26.0007962,103.189721 21.1897962,104.417721 18.9817962,108.138721 C16.7757962,111.854721 17.9957962,116.662721 21.7187962,118.871721 C52.7947962,137.318721 101.968796,139.052721 131.549796,130.073721 C135.691796,128.815721 138.025796,124.442721 136.770796,120.301721 C135.517796,116.164721 131.141796,113.828721 127.002796,115.083721 Z" id="path-1"></path>
    </defs>
    <g id="Page-1" stroke="none" stroke-width="1" fill="none" fill-rule="evenodd">
        <g id="fyi-Logo">
            <mask id="mask-2" fill="white">
                <use xlink:href="#path-1"></use>
            </mask>
            <use id="Combined-Shape" fill="#1ED760" xlink:href="#path-1"></use>
            <text id="fyi˚" font-family="Raleway-Bold, Raleway" font-size="90" font-weight="bold" fill="#1ED760">
                <tspan x="197" y="114">fyi</tspan>
                <tspan x="302.75" y="114" font-family="Montserrat-Bold, Montserrat">˚</tspan>
            </text>
        </g>
    </g>
</svg>